# xmcd
#
# Track frame offsets:
#	150
#	22114
#	40916
#	61152
#	80397
#	103135
#	126555
#	153239
#	174860
#	191995
#	213708
#	230378
#
# Disc length: 3556 seconds
#
# Revision: 1
# Processed by: cddbd v1.5.2PL0 Copyright (c) Steve Scherf et al.
# Submitted via: EasyCDDAExtractor 10.0.2.1
#
DISCID=a50de20c
DTITLE=Diana Ross - Every Day Is A New Day
DYEAR=1999
DGENRE=Blues
TTITLE0=He Lives In You
TTITLE1=Love Is All That Matters
TTITLE2=Until We Meet Again
TTITLE3=Got To Be Free
TTITLE4=Not Over You Yet
TTITLE5=So They Say
TTITLE6=Every Day Is A New Day
TTITLE7=Sugarfree
TTITLE8=Someone That You Loved Before
TTITLE9=Hope Is An Open Window
TTITLE10=Carry On (Remix)
TTITLE11=Until We Meet Again (Hex Hector Remix)
EXTD=
EXTT0=
EXTT1=
EXTT2=
EXTT3=
EXTT4=
EXTT5=
EXTT6=
EXTT7=
EXTT8=
EXTT9=
EXTT10=
EXTT11=
PLAYORDER=
